<?xml version="1.0"?>
<svg xmlns="http://www.w3.org/2000/svg" viewBox="0 0 512 512" width="512" height="512"><g id="Outline"><path d="M136,418.6V480a8,8,0,0,0,8,8h76.232a8,8,0,0,0,5.96-13.336,40,40,0,1,1,59.616,0A8,8,0,0,0,291.768,488H368a8,8,0,0,0,8-8V459.314l34.343,34.343,11.314-11.314-56-56a37.254,37.254,0,0,1,0-52.686,8,8,0,0,0,0-11.314l-28-28a8.97,8.97,0,1,1,12.686-12.686l28,28,11.314-11.314L376,324.686V304h24a16.019,16.019,0,0,1,16,16v72a8,8,0,0,0,2.343,5.657l44,44,11.314-11.314L432,388.687V320a32.036,32.036,0,0,0-32-32H376V194.6a56,56,0,1,0,0-101.2V32a8,8,0,0,0-8-8H291.768a8,8,0,0,0-5.96,13.336,40,40,0,1,1-59.616,0A8,8,0,0,0,220.232,24H144a8,8,0,0,0-8,8V52.686L101.657,18.343,90.343,29.657l56,56a37.3,37.3,0,0,1,0,52.686,8,8,0,0,0,0,11.314l36,36a8.97,8.97,0,0,1-12.686,12.686l-36-36-11.314,11.314L136,187.314V208H112a16.019,16.019,0,0,1-16-16V120a8,8,0,0,0-2.343-5.657l-44-44L38.343,81.657,80,123.313V192a32.036,32.036,0,0,0,32,32h24v93.4a56,56,0,1,0,0,101.2Zm22.343-208.942a24.971,24.971,0,0,0,35.314-35.314L162.89,143.576a53.342,53.342,0,0,0-5.233-69.233L152,68.686V40h53.4a56,56,0,1,0,101.2,0H360v68.232a8,8,0,0,0,13.336,5.96,40,40,0,1,1,0,59.616A8,8,0,0,0,360,179.768V248H291.768a8,8,0,0,0-5.96,13.336,40,40,0,1,1-59.616,0A8,8,0,0,0,220.232,248H152V203.314ZM72,368a39.993,39.993,0,0,1,66.664-29.808A8,8,0,0,0,152,332.232V264h53.4a56,56,0,1,0,101.2,0H360v44.832a24.969,24.969,0,0,0-33.657,36.825l22.762,22.762a53.282,53.282,0,0,0,5.238,69.238L360,443.314V472H306.6a56,56,0,1,0-101.2,0H152V403.768a8,8,0,0,0-13.336-5.96A39.993,39.993,0,0,1,72,368Z"/><path d="M40,368a71.758,71.758,0,0,1,59.866-70.982A24.026,24.026,0,0,0,120,273.335V248H104v25.335a8.065,8.065,0,0,1-6.81,7.907A88.025,88.025,0,0,0,38.538,416.465l13.348-8.822A71.675,71.675,0,0,1,40,368Z"/><path d="M59.211,416.963,47.484,427.85a88.914,88.914,0,0,0,11.7,10.546L68.8,425.6A72.713,72.713,0,0,1,59.211,416.963Z"/><path d="M472,144A71.461,71.461,0,0,1,443.2,201.609l9.61,12.793A87.326,87.326,0,0,0,488,144a88.238,88.238,0,0,0-70.408-86.239L414.408,73.44A72.189,72.189,0,0,1,472,144Z"/></g></svg>
